<svg width="15" height="14" viewBox="0 0 15 14" fill="none" xmlns="http://www.w3.org/2000/svg">
<path d="M13.3171 10.6923C13.3171 10.9023 13.2705 11.1182 13.1713 11.3282C13.0721 11.5382 12.9438 11.7365 12.7746 11.9232C12.4888 12.2382 12.1738 12.4657 11.818 12.6115C11.468 12.7573 11.0888 12.8332 10.6805 12.8332C10.0855 12.8332 9.44963 12.6932 8.7788 12.4073C8.10797 12.1215 7.43714 11.7365 6.77214 11.2523C6.1013 10.7623 5.46547 10.2198 4.8588 9.619C4.25797 9.01234 3.71547 8.3765 3.2313 7.7115C2.75297 7.0465 2.36797 6.3815 2.08797 5.72234C1.80797 5.05734 1.66797 4.4215 1.66797 3.81484C1.66797 3.41817 1.73797 3.039 1.87797 2.689C2.01797 2.33317 2.23964 2.0065 2.5488 1.71484C2.92214 1.34734 3.33047 1.1665 3.76214 1.1665C3.92547 1.1665 4.0888 1.2015 4.23464 1.2715C4.3863 1.3415 4.52047 1.4465 4.62547 1.59817L5.9788 3.50567C6.0838 3.6515 6.15964 3.78567 6.21214 3.914C6.26464 4.0365 6.2938 4.159 6.2938 4.26984C6.2938 4.40984 6.25297 4.54984 6.1713 4.684C6.09547 4.81817 5.98464 4.95817 5.84464 5.09817L5.4013 5.559C5.33714 5.62317 5.30797 5.699 5.30797 5.79234C5.30797 5.839 5.3138 5.87984 5.32547 5.9265C5.34297 5.97317 5.36047 6.00817 5.37214 6.04317C5.47714 6.23567 5.65797 6.4865 5.91464 6.78984C6.17714 7.09317 6.45713 7.40234 6.76047 7.7115C7.07547 8.02067 7.3788 8.3065 7.68797 8.569C7.9913 8.82567 8.24213 9.00067 8.44047 9.10567C8.46963 9.11734 8.50464 9.13484 8.54547 9.15234C8.59214 9.16984 8.6388 9.17567 8.6913 9.17567C8.79047 9.17567 8.8663 9.14067 8.93047 9.0765L9.3738 8.639C9.51964 8.49317 9.65964 8.38234 9.7938 8.31234C9.92797 8.23067 10.0621 8.18984 10.208 8.18984C10.3188 8.18984 10.4355 8.21317 10.5638 8.26567C10.6921 8.31817 10.8263 8.394 10.9721 8.49317L12.903 9.864C13.0546 9.969 13.1596 10.0915 13.2238 10.2373C13.2821 10.3832 13.3171 10.529 13.3171 10.6923Z" stroke="#222222" stroke-width="1.5" stroke-miterlimit="10"/>
</svg>
