<svg xmlns="http://www.w3.org/2000/svg" width="18" height="18" viewBox="0 0 18 18" fill="none">
  <g clip-path="url(#clip0_6229_31019)">
    <path d="M12.5982 8.99969C12.5982 10.9878 10.9864 12.5996 8.99822 12.5996C7.01006 12.5996 5.39844 10.9878 5.39844 8.99969C5.39844 7.01152 7.01006 5.3999 8.99822 5.3999C10.9864 5.3999 12.5982 7.01152 12.5982 8.99969Z" fill="#FE5C4D"/>
    <path d="M17.4601 8.45986H16.2565C15.9859 4.86535 13.1291 2.0081 9.53461 1.73719V0.540009C9.53461 0.241743 9.2927 0 8.9946 0C8.69633 0 8.45459 0.241743 8.45459 0.540009V1.73719C4.85991 2.0081 2.00299 4.86535 1.73241 8.45986H0.540009C0.241743 8.45986 0 8.70177 0 8.99987C0 9.29813 0.241743 9.53988 0.540009 9.53988H1.73241C2.00299 13.1344 4.85991 15.9916 8.45442 16.2625V17.4601C8.45442 17.7583 8.69617 18.0001 8.99443 18.0001C9.29253 18.0001 9.53428 17.7583 9.53428 17.4601V16.2625C13.129 15.9918 15.9859 13.1346 16.2565 9.53988H17.4601C17.7583 9.53988 18.0001 9.29813 18.0001 8.99987C18.0001 8.70177 17.7583 8.45986 17.4601 8.45986ZM8.99443 15.2096C5.56504 15.2094 2.78507 12.4291 2.78507 8.9997C2.78524 5.57015 5.56553 2.79018 8.99493 2.79018C12.4245 2.79018 15.2046 5.57048 15.2046 8.99987C15.2005 12.4279 12.4225 15.2058 8.99443 15.2096Z" fill="#FE5C4D"/>
  </g>
  <defs>
    <clipPath id="clip0_6229_31019">
      <rect width="18" height="18" fill="white"/>
    </clipPath>
  </defs>
</svg>
