<svg xmlns="http://www.w3.org/2000/svg" width="30" height="30" viewBox="0 0 30 30" fill="none">
  <g clip-path="url(#clip0_6457_9401)">
    <path d="M10.3125 26.7188C10.3125 26.8431 10.3619 26.9623 10.4498 27.0502C10.5377 27.1381 10.6569 27.1875 10.7812 27.1875H19.2188C19.3431 27.1875 19.4623 27.1381 19.5502 27.0502C19.6381 26.9623 19.6875 26.8431 19.6875 26.7188C19.6875 26.5944 19.6381 26.4752 19.5502 26.3873C19.4623 26.2994 19.3431 26.25 19.2188 26.25H10.7812C10.6569 26.25 10.5377 26.2994 10.4498 26.3873C10.3619 26.4752 10.3125 26.5944 10.3125 26.7188Z" fill="white"/>
    <path d="M19.9977 5.92948L16.836 5.47011L15.4237 2.60558C15.3806 2.53238 15.3191 2.47171 15.2454 2.42956C15.1716 2.38741 15.0881 2.36523 15.0032 2.36523C14.9183 2.36523 14.8348 2.38741 14.761 2.42956C14.6873 2.47171 14.6258 2.53238 14.5827 2.60558L13.169 5.47011L10.0073 5.92948C9.92065 5.94198 9.83926 5.97848 9.77231 6.03485C9.70537 6.09121 9.65554 6.16519 9.62846 6.24841C9.60139 6.33163 9.59815 6.42077 9.61912 6.50574C9.64009 6.5907 9.68442 6.6681 9.74711 6.72917L12.0351 8.95948L11.4951 12.1085C11.4803 12.1947 11.4899 12.2834 11.5229 12.3644C11.5559 12.4454 11.6108 12.5156 11.6816 12.567C11.7524 12.6184 11.8361 12.6489 11.9233 12.6552C12.0106 12.6615 12.0978 12.6433 12.1752 12.6026L15.0018 11.1157L17.8298 12.6026C17.9072 12.6433 17.9944 12.6615 18.0817 12.6552C18.1689 12.6489 18.2526 12.6184 18.3234 12.567C18.3942 12.5156 18.4491 12.4454 18.4821 12.3644C18.515 12.2834 18.5247 12.1947 18.5099 12.1085L17.9699 8.95948L20.2579 6.72917C20.3206 6.6681 20.3649 6.5907 20.3859 6.50574C20.4068 6.42077 20.4036 6.33163 20.3765 6.24841C20.3495 6.16519 20.2996 6.09121 20.2327 6.03485C20.1657 5.97848 20.0843 5.94198 19.9977 5.92948ZM17.1384 8.46073C17.0839 8.51376 17.0432 8.57922 17.0197 8.65149C16.9961 8.72376 16.9905 8.80066 17.0034 8.87558L17.4252 11.3314L15.2221 10.1717C15.1549 10.1364 15.0801 10.1179 15.0041 10.1179C14.9282 10.1179 14.8534 10.1364 14.7862 10.1717L12.5784 11.3309L13.0002 8.87511C13.013 8.8002 13.0075 8.72329 12.9839 8.65102C12.9604 8.57875 12.9197 8.51329 12.8652 8.46026L11.0807 6.72073L13.5468 6.36261C13.622 6.35168 13.6934 6.32264 13.7549 6.27797C13.8164 6.2333 13.8661 6.17435 13.8998 6.1062L15.0018 3.87214L16.1043 6.1062C16.1379 6.17435 16.1876 6.2333 16.2491 6.27797C16.3106 6.32264 16.3821 6.35168 16.4573 6.36261L18.9234 6.72073L17.1384 8.46073Z" fill="white"/>
    <path d="M27.6562 0H2.34375C2.21943 0 2.1002 0.049386 2.01229 0.137294C1.92439 0.225201 1.875 0.34443 1.875 0.46875V4.58578C1.87876 6.71414 2.57375 8.7837 3.85537 10.4829C5.13698 12.1822 6.93587 13.4191 8.98125 14.0077C10.0919 15.2714 11.5184 16.2175 13.1147 16.7489C13.063 17.6146 12.8043 18.4552 12.3602 19.2001C11.9161 19.945 11.2997 20.5724 10.5628 21.0295L9.70922 21.5625H8.90625C8.53329 21.5625 8.1756 21.7107 7.91188 21.9744C7.64816 22.2381 7.5 22.5958 7.5 22.9688V23.4375H7.03125C6.65829 23.4375 6.3006 23.5857 6.03688 23.8494C5.77316 24.1131 5.625 24.4708 5.625 24.8438V29.5312C5.625 29.6556 5.67439 29.7748 5.76229 29.8627C5.8502 29.9506 5.96943 30 6.09375 30H23.9062C24.0306 30 24.1498 29.9506 24.2377 29.8627C24.3256 29.7748 24.375 29.6556 24.375 29.5312V24.8438C24.375 24.4708 24.2268 24.1131 23.9631 23.8494C23.6994 23.5857 23.3417 23.4375 22.9688 23.4375H22.5V22.9688C22.5 22.5958 22.3518 22.2381 22.0881 21.9744C21.8244 21.7107 21.4667 21.5625 21.0938 21.5625H20.2908L19.4372 21.0291C18.7003 20.5719 18.084 19.9446 17.6399 19.1998C17.1958 18.455 16.9371 17.6145 16.8853 16.7489C18.4833 16.2188 19.9111 15.2723 21.0216 14.0067C21.2437 13.943 21.465 13.8755 21.6778 13.7972C23.5655 13.1054 25.1957 11.8515 26.3485 10.2043C27.5014 8.55725 28.1214 6.59624 28.125 4.58578V0.46875C28.125 0.34443 28.0756 0.225201 27.9877 0.137294C27.8998 0.049386 27.7806 0 27.6562 0ZM6.77297 9.54937C6.11259 8.9024 5.58797 8.13013 5.22987 7.27781C4.87176 6.42549 4.68737 5.51027 4.6875 4.58578V2.8125H6.58781V7.73438C6.59019 8.34397 6.65221 8.95186 6.77297 9.54937ZM2.8125 4.58578V0.9375H6.58781V1.875H4.21875C4.09443 1.875 3.9752 1.92439 3.88729 2.01229C3.79939 2.1002 3.75 2.21943 3.75 2.34375V4.58578C3.75046 5.87846 4.06811 7.15128 4.6751 8.29259C5.28208 9.4339 6.15985 10.4088 7.23141 11.1319C7.43258 11.6548 7.67931 12.1591 7.96875 12.6389C6.43139 11.9273 5.12933 10.7912 4.21584 9.36453C3.30236 7.93784 2.81547 6.27986 2.8125 4.58578ZM21.5625 22.9688V23.4375H11.7188C11.5944 23.4375 11.4752 23.4869 11.3873 23.5748C11.2994 23.6627 11.25 23.7819 11.25 23.9062C11.25 24.0306 11.2994 24.1498 11.3873 24.2377C11.4752 24.3256 11.5944 24.375 11.7188 24.375H22.9688C23.0931 24.375 23.2123 24.4244 23.3002 24.5123C23.3881 24.6002 23.4375 24.7194 23.4375 24.8438V29.0625H6.5625V24.8438C6.5625 24.7194 6.61189 24.6002 6.69979 24.5123C6.7877 24.4244 6.90693 24.375 7.03125 24.375H9.84375C9.96807 24.375 10.0873 24.3256 10.1752 24.2377C10.2631 24.1498 10.3125 24.0306 10.3125 23.9062C10.3125 23.7819 10.2631 23.6627 10.1752 23.5748C10.0873 23.4869 9.96807 23.4375 9.84375 23.4375H8.4375V22.9688C8.4375 22.8444 8.48689 22.7252 8.57479 22.6373C8.6627 22.5494 8.78193 22.5 8.90625 22.5H21.0938C21.2181 22.5 21.3373 22.5494 21.4252 22.6373C21.5131 22.7252 21.5625 22.8444 21.5625 22.9688ZM16.2806 15.9548C16.182 15.9823 16.095 16.0413 16.0331 16.1228C15.9711 16.2043 15.9375 16.3039 15.9375 16.4062C15.936 17.4134 16.1745 18.4065 16.6332 19.3031C17.0919 20.1998 17.7576 20.9743 18.5752 21.5625H11.4248C12.2424 20.9743 12.9081 20.1998 13.3668 19.3031C13.8255 18.4065 14.064 17.4134 14.0625 16.4062C14.06 16.303 14.0246 16.2032 13.9613 16.1216C13.898 16.0399 13.8103 15.9807 13.7109 15.9525C11.9316 15.4329 10.3679 14.3519 9.2531 12.8709C8.13834 11.3898 7.53228 9.58806 7.52531 7.73438V0.9375H22.4747V7.73438C22.4673 9.58945 21.8601 11.3924 20.7438 12.874C19.6274 14.3555 18.0618 15.4363 16.2806 15.9548ZM22.7695 11.1291C24.1743 10.1706 25.2372 8.78965 25.8042 7.18641C25.8257 7.12807 25.8354 7.06603 25.8327 7.00391C25.83 6.94179 25.815 6.88084 25.7885 6.82458C25.762 6.76833 25.7246 6.71792 25.6784 6.67626C25.6322 6.63461 25.5782 6.60256 25.5196 6.58198C25.4609 6.5614 25.3987 6.55269 25.3366 6.55637C25.2746 6.56005 25.2139 6.57605 25.158 6.60342C25.1022 6.63079 25.0524 6.66899 25.0115 6.71581C24.9705 6.76262 24.9393 6.81711 24.9197 6.87609C24.5646 7.87868 23.9878 8.78817 23.2322 9.53672C23.3512 8.94247 23.4123 8.33808 23.4145 7.73203V2.8125H25.3125V4.58578C25.3116 4.91156 25.2879 5.23689 25.2417 5.55937C25.2243 5.68245 25.2565 5.80739 25.3313 5.90672C25.406 6.00605 25.5171 6.07164 25.6402 6.08906C25.662 6.09226 25.6841 6.09382 25.7062 6.09375C25.8191 6.09362 25.9281 6.05278 26.0133 5.97872C26.0985 5.90467 26.154 5.80237 26.1698 5.69063C26.2222 5.32466 26.249 4.95548 26.25 4.58578V2.34375C26.25 2.21943 26.2006 2.1002 26.1127 2.01229C26.0248 1.92439 25.9056 1.875 25.7812 1.875H23.4122V0.9375H27.1875V4.58578C27.1844 6.27984 26.6975 7.93776 25.784 9.36444C24.8705 10.7911 23.5685 11.9272 22.0312 12.6389C22.3212 12.1583 22.5683 11.653 22.7695 11.1291Z" fill="white"/>
  </g>
  <defs>
    <clipPath id="clip0_6457_9401">
      <rect width="30" height="30" fill="white"/>
    </clipPath>
  </defs>
</svg>