<svg xmlns="http://www.w3.org/2000/svg" width="12" height="12" viewBox="0 0 12 12" fill="none">
  <g clip-path="url(#clip0_6457_8675)">
    <path d="M6.80991 6.13496C7.40176 6.13496 7.88155 5.65518 7.88155 5.06333C7.88155 4.47149 7.40176 3.9917 6.80991 3.9917C6.21807 3.9917 5.73828 4.47149 5.73828 5.06333C5.73828 5.65518 6.21807 6.13496 6.80991 6.13496Z" fill="white"/>
    <path d="M11.2138 1.38568L3.90442 0.0154526C3.66916 -0.0286453 3.42601 0.0225185 3.22847 0.157689C3.03093 0.292859 2.89518 0.500965 2.85107 0.736226L2.47204 2.75818H0.953289C0.834762 2.75818 0.717396 2.78153 0.607893 2.82689C0.498389 2.87225 0.398893 2.93874 0.315086 3.02255C0.23128 3.10637 0.164803 3.20587 0.119454 3.31538C0.0741039 3.42489 0.0507689 3.54225 0.0507813 3.66078V11.0975C0.0508248 11.3368 0.145929 11.5663 0.315178 11.7356C0.484426 11.9048 0.713957 11.9998 0.953289 11.9998H8.39001C8.62937 11.9998 8.85892 11.9048 9.02818 11.7355C9.19743 11.5663 9.29251 11.3367 9.29251 11.0973V10.4282L9.51098 10.4691C9.62747 10.491 9.74712 10.4897 9.8631 10.4653C9.97908 10.4409 10.0891 10.3938 10.1869 10.3269C10.2847 10.26 10.3684 10.1744 10.4332 10.0752C10.4979 9.97591 10.5425 9.86486 10.5643 9.74837L11.9346 2.43903C11.9564 2.32254 11.9551 2.20288 11.9307 2.0869C11.9063 1.97092 11.8593 1.86088 11.7923 1.76307C11.7254 1.66525 11.6398 1.58158 11.5406 1.51683C11.4413 1.45208 11.3303 1.40751 11.2138 1.38568ZM0.63407 7.8417V4.01469C0.63407 3.83611 0.705008 3.66485 0.831279 3.53858C0.957549 3.41231 1.12881 3.34137 1.30738 3.34137H8.07742C8.24497 3.34137 8.40566 3.40793 8.52414 3.52641C8.64262 3.64489 8.70918 3.80558 8.70918 3.97313V9.6998L5.8837 7.05137L4.85334 7.67996L3.27641 6.10297L0.63407 7.8417ZM11.3036 2.63874L10.2485 8.26728L9.29247 6.96263V3.66078C9.29247 3.42142 9.19738 3.19186 9.02813 3.02261C8.85888 2.85336 8.62932 2.75827 8.38996 2.75827H3.06548L3.35905 1.19171C3.37535 1.1048 3.4086 1.02195 3.45692 0.947887C3.50523 0.873827 3.56766 0.810009 3.64064 0.760076C3.71362 0.710143 3.79572 0.675074 3.88225 0.656871C3.96878 0.638667 4.05805 0.637686 4.14496 0.653984L10.7991 1.9014C10.8807 1.91668 10.9584 1.94788 11.0279 1.99321C11.0974 2.03854 11.1572 2.09711 11.2041 2.16558C11.2509 2.23405 11.2838 2.31107 11.3009 2.39226C11.318 2.47344 11.3189 2.5572 11.3036 2.63874Z" fill="white"/>
  </g>
  <defs>
    <clipPath id="clip0_6457_8675">
      <rect width="12" height="12" fill="white"/>
    </clipPath>
  </defs>
</svg>