<svg width="33" height="40" viewBox="0 0 33 40" fill="none" xmlns="http://www.w3.org/2000/svg">
<path d="M26.5599 0C27.3551 0.306905 27.6935 0.886611 27.6089 1.72208C27.575 2.11423 27.6935 2.19949 28.0657 2.18244C29.0808 2.14834 30.1128 2.16538 31.1279 2.16538C32.2445 2.16538 32.972 2.89855 32.972 4.02387C32.9551 5.49019 33.0735 6.97357 32.9212 8.42284C32.5152 12.2762 30.6034 15.1236 27.1859 16.9139C25.5617 17.7664 23.9037 18.5166 22.2457 19.2839C21.8059 19.4885 21.5521 19.8465 21.2306 20.1705C21.1122 20.2899 21.1968 20.341 21.2814 20.4092C21.6198 20.6991 21.7382 21.0912 21.7382 21.5345C21.7382 22.1142 21.7551 22.711 21.7382 23.2907C21.7213 24.1944 21.1799 24.7229 20.2663 24.74C19.5219 24.757 19.5219 24.757 19.5219 25.4902C19.5219 26.1552 19.5388 26.8201 19.5219 27.4851C19.5219 27.7238 19.5726 27.792 19.8095 27.792C20.8754 27.7749 21.9243 27.7749 22.9902 27.792C24.7835 27.792 26.0355 29.0367 26.0355 30.861C26.0355 31.6283 26.0355 32.3956 26.0355 33.1628C26.0355 33.6061 25.8155 33.8789 25.4602 33.8789C25.1049 33.8789 24.885 33.6061 24.885 33.1628C24.885 32.3615 24.885 31.5772 24.885 30.7758C24.885 29.7016 24.1406 28.9685 23.0747 28.9685C18.6929 28.9685 14.328 28.9685 9.94611 28.9685C8.89717 28.9685 8.15276 29.7187 8.15276 30.7928C8.15276 32.0887 8.16968 33.3674 8.13585 34.6633C8.13585 34.9872 8.20352 35.0725 8.52497 35.0725C14.0234 35.0554 19.5219 35.0725 25.0204 35.0725C25.6632 35.0725 26.3061 35.0725 26.949 35.0725C27.7611 35.0895 28.3364 35.6522 28.3533 36.4706C28.3702 37.1696 28.3533 37.8687 28.3533 38.5848C28.3364 39.4203 27.778 40 26.9321 40C24.6651 40 22.3811 40 20.114 40C15.4953 40 10.8766 40 6.25791 40C5.15822 40 4.66759 39.4885 4.65067 38.3802C4.65067 37.7494 4.65067 37.1356 4.65067 36.5047C4.66759 35.6692 5.22589 35.1066 6.07181 35.0895C6.35942 35.0895 6.76546 35.2259 6.91772 35.0384C7.06999 34.8508 6.96848 34.4757 6.96848 34.1688C6.96848 33.0605 6.96848 31.9523 6.96848 30.844C6.96848 29.0878 8.22044 27.8261 9.97995 27.8261C11.0458 27.8261 12.0947 27.8261 13.1606 27.8261C13.3975 27.8261 13.499 27.792 13.482 27.5192C13.4651 26.7178 13.4651 25.8994 13.482 25.098C13.482 24.8252 13.3975 24.757 13.1606 24.7911C11.7564 24.9275 11.1642 24.2114 11.2657 22.8644C11.2996 22.4552 11.2827 22.029 11.2657 21.6198C11.2657 21.1765 11.3672 20.7673 11.7225 20.4604C11.841 20.3581 11.841 20.2899 11.7395 20.1875C11.4011 19.8295 11.0966 19.4885 10.6228 19.2668C9.08327 18.5678 7.5437 17.8346 6.02105 17.0673C2.12983 15.0895 0.150385 11.8841 0.0150385 7.50213C-0.0187982 6.37681 0.0150385 5.23444 0.0150385 4.10912C0.0150385 2.93265 0.742528 2.21654 1.89298 2.21654C2.95883 2.21654 4.00777 2.21654 5.07363 2.21654C5.31048 2.21654 5.39507 2.16538 5.37815 1.90963C5.36124 1.61977 5.34432 1.31287 5.42891 1.02302C5.56426 0.494459 5.9703 0.221646 6.42709 0.0340923C13.1437 -8.32585e-06 19.8433 0 26.5599 0Z" fill="black"/>
<path d="M16.5274 1.1582C19.6742 1.1582 22.821 1.1582 25.9678 1.1582C26.34 1.1582 26.4584 1.2605 26.4584 1.63561C26.4754 4.05675 26.4246 6.46084 25.8663 8.84789C24.885 13.0593 22.9056 16.7422 19.9449 19.8624C19.7926 20.0158 19.6404 20.067 19.4373 20.067C17.4748 20.067 15.5123 20.067 13.5498 20.067C13.3298 20.067 13.1775 19.9988 13.0084 19.8283C9.48935 16.0943 7.39147 11.6782 6.71474 6.5802C6.4948 4.89222 6.52864 3.20424 6.51172 1.51626C6.51172 1.17525 6.69782 1.1582 6.95159 1.1582C10.1661 1.1582 13.3467 1.1582 16.5274 1.1582Z" fill="white"/>
<path d="M16.4793 38.7889C13.0787 38.7889 9.69505 38.7889 6.29446 38.7889C5.90534 38.7889 5.76999 38.6866 5.78691 38.2945C5.82075 37.7659 5.82075 37.2203 5.78691 36.6917C5.76999 36.3166 5.8715 36.1973 6.26063 36.1973C8.67995 36.2143 11.1162 36.1973 13.5355 36.1973C17.9174 36.1973 22.2823 36.1973 26.6642 36.1973C27.1717 36.1973 27.1717 36.1973 27.1717 36.7088C27.1717 37.2373 27.1548 37.7488 27.1717 38.2603C27.1886 38.6525 27.0871 38.7719 26.6811 38.7719C23.4666 38.7548 20.2521 38.7548 17.0376 38.7548C16.8684 38.7889 16.6823 38.7889 16.4793 38.7889Z" fill="#FEFEFE"/>
<path d="M9.49021 17.4073C7.44309 16.3502 5.20987 15.6341 3.60262 13.8268C2.02922 12.0194 1.21714 9.93929 1.1833 7.55225C1.16638 6.39283 1.1833 5.2334 1.1833 4.07398C1.1833 3.54542 1.38632 3.34082 1.91079 3.34082C2.97664 3.34082 4.02558 3.34082 5.09144 3.34082C5.32829 3.34082 5.39597 3.39197 5.39597 3.63068C5.39597 4.51729 5.41289 4.5173 4.53313 4.5173C4.00866 4.5173 3.50111 4.5173 2.97664 4.5173C2.60444 4.5173 2.35067 4.72189 2.35067 5.0629C2.36758 6.59742 2.21532 8.13196 2.63828 9.63239C3.12891 11.3886 4.07634 12.8378 5.49748 13.9632C5.85276 14.253 6.19113 14.253 6.41107 13.9632C6.63101 13.6904 6.56333 13.3323 6.22497 13.0595C4.82074 11.9342 3.94099 10.4679 3.61954 8.69462C3.45036 7.75685 3.53495 6.80203 3.51803 5.84722C3.51803 5.71081 3.56879 5.67671 3.70413 5.67671C4.2286 5.67671 4.76999 5.69376 5.29446 5.67671C5.5144 5.67671 5.5144 5.79606 5.53132 5.94951C5.78509 8.81396 6.54642 11.5591 7.78146 14.1507C8.27209 15.2078 8.84731 16.2308 9.49021 17.2027C9.47329 17.2539 9.54097 17.305 9.49021 17.4073Z" fill="#FEFEFE"/>
<path d="M23.4102 17.4585C23.7993 16.8276 24.1207 16.282 24.4591 15.7193C24.5606 15.5659 24.7298 15.5318 24.8821 15.4636C25.8295 15.0032 26.8107 14.577 27.6228 13.895C29.5854 12.2411 30.6005 10.1268 30.6681 7.55225C30.685 6.78498 30.6681 6.01772 30.6681 5.25046C30.6681 4.7219 30.4651 4.51729 29.9406 4.51729C29.2639 4.51729 28.6041 4.50024 27.9274 4.51729C27.6905 4.51729 27.589 4.48319 27.6059 4.19334C27.6397 3.34082 27.6228 3.34082 28.4857 3.34082C29.3823 3.34082 30.2621 3.34082 31.1588 3.34082C31.5986 3.34082 31.8355 3.54543 31.8355 3.97168C31.8186 5.45506 31.937 6.93843 31.7847 8.42181C31.4633 11.5591 29.9237 13.9632 27.2506 15.5829C26.0325 16.299 24.7298 16.8106 23.4102 17.4585Z" fill="#FEFEFE"/>
<path d="M16.4919 23.58C15.3076 23.58 14.1233 23.58 12.939 23.58C12.4315 23.58 12.4315 23.58 12.4315 23.0514C12.4315 22.5911 12.4484 22.1137 12.4315 21.6533C12.4146 21.3635 12.5161 21.2271 12.8206 21.2271C15.2738 21.2441 17.7269 21.2441 20.1801 21.2271C20.4677 21.2271 20.5861 21.3123 20.5692 21.6021C20.5523 22.1307 20.5523 22.6763 20.5692 23.2049C20.5861 23.5118 20.4508 23.58 20.1801 23.58C18.945 23.58 17.71 23.58 16.4919 23.58Z" fill="#FEFEFE"/>
<path d="M25.3945 13.896C26.545 11.3385 27.2555 8.71273 27.5093 5.96764C27.5262 5.78008 27.577 5.69482 27.78 5.69482C28.2876 5.71187 28.7782 5.69482 29.2858 5.69482C29.4042 5.69482 29.5057 5.69482 29.5057 5.86533C29.5057 7.3828 29.5564 8.90028 28.9135 10.3325C28.203 11.9011 26.8833 13.2822 25.3945 13.896Z" fill="#FEFEFE"/>
<path d="M16.4769 27.7747C15.9524 27.7747 15.4111 27.7576 14.8866 27.7747C14.6836 27.7747 14.6328 27.7235 14.6328 27.5189C14.6497 26.6664 14.6497 25.831 14.6328 24.9785C14.6328 24.7909 14.6836 24.7397 14.8697 24.7397C15.9524 24.7397 17.0352 24.7568 18.118 24.7397C18.3041 24.7397 18.3548 24.808 18.3548 24.9785C18.3548 25.831 18.3379 26.6664 18.3548 27.5189C18.3548 27.7235 18.3041 27.7747 18.1011 27.7747C17.5597 27.7747 17.0183 27.7747 16.4769 27.7747Z" fill="#FEFEFE"/>
<path d="M14.594 7.21378L14.9108 7.60064C15.1774 7.38229 15.2855 7.05575 15.3449 6.83839C15.3741 6.73133 15.3988 6.62027 15.4201 6.52388C15.4225 6.51331 15.4248 6.50292 15.427 6.49273C15.4511 6.3844 15.4717 6.29562 15.4949 6.21831C15.5961 5.89533 15.6959 5.57697 15.7954 5.27598C15.9226 4.90533 16.1909 4.72998 16.4719 4.72998C16.778 4.72998 17.0379 4.89593 17.1632 5.28647L17.1633 5.28682C17.2346 5.50822 17.3059 5.72195 17.3763 5.9327C17.5133 6.34302 17.6465 6.74203 17.7678 7.16426L17.7677 7.16428L17.7702 7.17223C17.8164 7.32368 17.9014 7.52103 18.0916 7.65793C18.2828 7.79556 18.4918 7.80957 18.6465 7.79851C19.2595 7.78205 19.889 7.78216 20.5018 7.79885L20.5018 7.79903H20.5154C20.7738 7.79903 20.9479 7.85566 21.0618 7.92952C21.1703 7.99994 21.2556 8.10582 21.3081 8.26987L21.308 8.2699L21.3111 8.27886C21.3707 8.45373 21.3645 8.59413 21.3181 8.71797C21.2691 8.84909 21.1588 9.00358 20.9414 9.16784C20.8554 9.23285 20.7706 9.29745 20.6867 9.36136C20.2954 9.65947 19.9237 9.94269 19.5397 10.1829L19.5396 10.1828L19.5317 10.188C19.3396 10.3133 19.1465 10.4914 19.0739 10.7672C19.007 11.0212 19.0715 11.2606 19.1271 11.4288L19.127 11.4288L19.1315 11.4415C19.2792 11.8508 19.4075 12.2568 19.5414 12.6807C19.5875 12.8266 19.6343 12.9745 19.6827 13.1255C19.7541 13.3628 19.753 13.5447 19.7159 13.6802C19.6801 13.811 19.6019 13.9328 19.455 14.0424C19.3052 14.1543 19.1749 14.1895 19.0541 14.1844C18.9263 14.179 18.7568 14.1258 18.5417 13.97L18.5417 13.9699L18.5366 13.9663C18.0271 13.6069 17.5318 13.2573 17.0548 12.8761L17.053 12.8746C16.8888 12.7446 16.6699 12.6235 16.3996 12.6421C16.1475 12.6594 15.958 12.7931 15.8349 12.8958C15.3759 13.2589 14.8815 13.6079 14.3932 13.9473L14.3932 13.9472L14.3853 13.9529C14.173 14.1067 13.9993 14.1617 13.8628 14.1673C13.7335 14.1727 13.5944 14.1358 13.4384 14.0255C13.3002 13.9164 13.2266 13.7991 13.1927 13.6724C13.1569 13.5383 13.1553 13.3543 13.2284 13.1047C13.2504 13.0342 13.2723 12.9638 13.2942 12.8935C13.4589 12.3635 13.6223 11.8378 13.8112 11.3253L13.8112 11.3253L13.8133 11.3194C13.875 11.1453 13.9176 10.9206 13.8218 10.6862C13.7355 10.4749 13.569 10.3454 13.4684 10.2717L13.4617 10.2668L13.4548 10.262C13.0801 10.0062 12.7177 9.73517 12.3478 9.45845C12.2104 9.35574 12.0721 9.25225 11.9317 9.14847C11.7269 8.99513 11.6193 8.84527 11.5697 8.71524C11.5225 8.59116 11.5154 8.45308 11.5674 8.28921C11.6211 8.12811 11.7071 8.01701 11.8153 7.94171C11.9264 7.86441 12.0894 7.80523 12.3236 7.79885L12.3236 7.7989L12.331 7.79859C12.7253 7.78204 13.0371 7.78198 13.4266 7.78198H13.4506L13.4744 7.77969C13.5112 7.77616 13.5694 7.77781 13.6673 7.78788C13.6926 7.79048 13.7256 7.7943 13.7624 7.79856C13.8354 7.807 13.9234 7.81718 13.9955 7.82299C14.2094 7.84024 14.6014 7.85742 14.9133 7.59853L14.594 7.21378ZM14.594 7.21378C14.7906 7.05277 14.8623 6.72982 14.9322 6.41484C14.9585 6.2962 14.9846 6.1787 15.017 6.07141M14.594 7.21378C14.4056 7.37013 14.1156 7.3363 13.8381 7.30392C13.6919 7.28686 13.5492 7.27021 13.4266 7.28198L15.017 6.07141M15.017 6.07141C15.1185 5.74746 15.22 5.4235 15.3215 5.1166L15.017 6.07141ZM18.2484 7.02622C18.1243 6.59429 17.9852 6.17751 17.8461 5.76073C17.7765 5.55233 17.707 5.34394 17.6393 5.13364L18.2484 7.02622ZM18.2484 7.02622C18.316 7.24788 18.4175 7.31608 18.6206 7.29903C19.2465 7.28198 19.8894 7.28198 20.5154 7.29903C21.1752 7.29903 21.6151 7.58889 21.7843 8.11745M18.2484 7.02622L16.7426 13.2666M16.7426 13.2666C17.2333 13.6588 17.7408 14.0169 18.2484 14.3749C18.7897 14.7671 19.2973 14.7841 19.7541 14.4431C20.2109 14.1021 20.3462 13.5906 20.1601 12.9768C20.1128 12.8294 20.0666 12.6832 20.0207 12.5377C19.8858 12.111 19.7532 11.6914 19.6018 11.2718C19.5003 10.9648 19.5172 10.7943 19.8049 10.6068C20.2103 10.3532 20.6041 10.053 20.996 9.7544C21.0783 9.69162 21.1606 9.62891 21.2429 9.56672C21.7843 9.15751 21.9704 8.66306 21.7843 8.11745M16.7426 13.2666C16.5058 13.0791 16.3535 13.1132 16.1505 13.2837C15.6768 13.6588 15.1692 14.0168 14.6786 14.3579C14.1372 14.75 13.6127 14.7671 13.139 14.4261C12.6991 14.0851 12.5638 13.5906 12.7499 12.9597C12.7721 12.8886 12.7943 12.8171 12.8166 12.7455C12.9809 12.2168 13.1483 11.678 13.342 11.1524M16.7426 13.2666L13.342 11.1524M21.7843 8.11745L21.7843 8.11745L21.7843 8.11745ZM13.342 11.1524C13.4266 10.9137 13.359 10.8114 13.1729 10.675L13.342 11.1524Z" fill="white" stroke="#222222"/>
<path d="M16.5082 5.33789C16.762 6.13925 16.9819 6.80421 17.2019 7.48622C17.4218 8.16824 17.794 8.44104 18.5215 8.45809C19.2321 8.45809 19.9596 8.45809 20.6871 8.54335C20.1626 8.9355 19.6381 9.31061 19.0967 9.70276C18.3185 10.2654 18.2001 10.6235 18.4877 11.5271C18.6907 12.1751 18.8937 12.8059 19.1306 13.5561C18.5046 13.0958 17.9632 12.7036 17.4049 12.2944C16.6943 11.7659 16.2544 11.7659 15.5608 12.2774C15.0025 12.6866 14.4611 13.0787 13.8351 13.5391C14.0889 12.7718 14.2919 12.0898 14.5119 11.4249C14.7487 10.6576 14.6134 10.2484 13.9874 9.77097C13.4291 9.36176 12.8708 8.95255 12.2617 8.50924C12.5832 8.40694 12.8708 8.45809 13.1415 8.45809C13.5983 8.44104 14.072 8.45809 14.5288 8.45809C15.1717 8.44104 15.5608 8.16823 15.7638 7.53737C15.9499 6.95766 16.136 6.37796 16.3221 5.79825C16.3729 5.6789 16.4236 5.57659 16.5082 5.33789Z" fill="white"/>
</svg>
