<svg xmlns="http://www.w3.org/2000/svg" width="30" height="30" viewBox="0 0 30 30" fill="none">
  <path d="M27.9507 24.7441C27.8921 23.789 27.3179 22.9804 26.48 22.5937C24.7808 21.791 22.7769 23.1504 22.8999 25.0312C22.9468 26.332 24.1187 27.4394 25.4195 27.416C26.8667 27.4218 28.0386 26.1855 27.9507 24.7441ZM25.5308 26.707C24.5406 26.7832 23.6206 25.9511 23.6031 24.955C23.6206 24.955 23.6382 24.9492 23.6499 24.9433L24.3589 24.5273C24.3882 24.5097 24.4058 24.4863 24.4117 24.457L24.6343 23.6191C24.6402 23.5898 24.6402 23.5547 24.6226 23.5312C24.605 23.5019 24.5816 23.4843 24.5523 23.4785L24.3472 23.4257C24.646 23.2031 25.0386 23.0683 25.4312 23.0683L25.3726 23.2441C25.355 23.291 25.3726 23.3437 25.4136 23.373L26.1226 23.9062C26.1402 23.9238 26.1695 23.9297 26.1929 23.9297H26.2046L26.9019 23.8476C26.9077 23.8476 26.9195 23.8476 26.9253 23.8418C27.7398 24.9843 26.9429 26.6425 25.5308 26.707Z" fill="white"/>
  <path d="M26.0807 24.621C26.0514 24.58 25.9987 24.5625 25.9518 24.58L24.9909 24.914C24.944 24.9316 24.9088 24.9785 24.9147 25.0312L24.944 25.9863C24.944 26.0332 24.9733 26.0742 25.0202 26.0917C25.026 26.0917 25.0436 26.1035 25.9577 26.3496C26.0045 26.3613 26.0514 26.3437 26.0807 26.3085L26.6667 25.5175C26.696 25.4765 26.696 25.4179 26.6667 25.3769L26.0807 24.621Z" fill="white"/>
  <path d="M20.2106 23.1327C20.6032 21.9902 20.9958 20.8534 21.3883 19.7167C21.4997 19.3827 21.6344 19.0077 21.6286 18.6034C21.5758 17.496 20.8024 16.8398 20.1461 16.1249C19.4547 15.4042 18.5231 14.4491 18.5055 13.5116C18.529 13.4062 18.6227 13.289 18.7223 13.1659C19.0329 12.7792 19.3258 12.3808 19.6012 11.9648C19.7243 12.3515 19.9411 12.7031 20.234 12.996C20.5211 13.3007 20.8961 13.4179 21.3356 13.2421C22.7126 12.7792 24.0719 12.2167 25.3668 11.5722C25.5485 11.4843 25.7946 11.3613 25.9528 11.1152C26.0641 10.9277 26.1227 10.7167 26.1168 10.4999C26.1286 9.72063 25.6715 9.22844 25.1793 8.81243C25.0797 8.71282 24.9508 8.65422 24.8102 8.63665C24.4469 8.61907 24.2946 8.90618 24.2067 9.0468C24.1833 9.05852 24.154 9.07024 24.1188 9.08782C24.0543 9.12298 23.9782 9.11712 23.9665 9.09954C23.8903 9.01165 23.779 8.96477 23.6676 8.97649C23.5563 8.98821 23.4508 9.05266 23.3981 9.15227C23.2516 9.41594 23.1872 9.71477 23.1989 10.0136C22.777 10.0898 22.3551 10.1894 21.9391 10.3007C21.8512 9.74993 21.6227 9.2343 21.2829 8.79485C21.7868 8.55462 22.1208 7.96282 22.2379 7.42376C22.4782 6.73821 22.6129 6.01751 22.5954 5.36126C22.5836 4.83977 22.4137 4.16009 21.5993 3.94915C19.5075 3.21673 18.1833 4.28899 18.359 6.28704C17.0172 6.12884 15.652 6.53899 14.3395 6.41594C14.2223 6.39837 14.1051 6.41009 13.9997 6.46282C13.0387 6.39837 12.0895 6.24016 11.1579 5.99407C10.0446 5.72454 8.94302 5.43157 7.81216 6.17571C7.53091 6.35149 7.38443 6.67962 7.42544 7.00774C7.46646 7.62883 7.8063 8.01555 8.12271 8.44915C8.32193 8.76555 8.70279 8.84759 9.01333 8.64837C9.26529 8.50774 9.37661 8.39055 9.46451 8.27923C9.65201 8.36126 9.88052 8.37298 10.0622 8.2968C10.2321 8.23235 10.3786 8.08587 10.5251 8.03313C10.5836 8.02727 10.6481 8.04485 10.7067 8.06243C10.9879 8.1386 11.2985 8.25579 11.6266 8.37297C12.277 8.61321 12.9508 8.8593 13.5895 8.89446C13.6129 9.02923 13.7126 9.14055 13.8415 9.17571C14.2165 9.27532 14.5856 9.2929 14.9547 9.35149C14.8551 10.0488 14.7497 10.8925 14.7379 11.7245C14.7379 11.8359 14.7379 11.9706 14.6969 12.0468C14.6559 12.123 14.5446 12.1874 14.4215 12.2577C13.5661 12.7441 13.0329 13.5058 12.9626 14.4726C12.9508 14.5956 12.9508 14.7714 12.9098 14.8652C12.8629 14.9531 12.7985 15.0351 12.7223 15.0995L11.1344 16.7519C10.8708 17.0273 10.6012 17.3085 10.279 17.4784C10.068 17.5839 9.84537 17.6601 9.61685 17.7187C8.3688 18.0292 7.33755 18.8144 6.31216 19.5234C6.24185 19.5761 6.16568 19.623 6.07779 19.6288C6.00747 19.6288 5.91958 19.5995 5.81997 19.5644C5.68521 19.5234 5.53872 19.4706 5.36294 19.4648C5.06997 19.4531 4.77115 19.5761 4.53677 19.7988C4.48404 19.7695 4.41372 19.7577 4.34927 19.7636C4.02115 19.7636 3.87466 20.1855 4.12661 20.3906C3.98013 20.6777 3.96255 20.9589 3.93911 21.2519C3.8981 21.7265 3.86294 22.1191 3.76333 22.5116C3.41763 22.4999 3.27115 22.9511 3.52896 23.162C3.45865 23.3027 3.40591 23.4198 3.3649 23.6073C3.03091 23.6894 3.00747 24.1933 3.3356 24.3046C3.38833 24.6034 3.62271 24.8554 3.93325 24.8495C4.027 24.8495 4.14419 24.832 4.23208 24.7792C4.90591 24.3515 5.27505 23.9003 5.70279 23.3788C5.86099 23.1855 6.02505 22.9804 6.22427 22.7577C6.35318 22.6054 6.43521 22.4238 6.45865 22.2304C7.53091 21.3398 8.95474 20.9999 10.2204 20.7304C10.7184 20.6249 11.234 20.5136 11.7321 20.3085C12.7223 19.8866 13.5075 19.1074 14.193 18.4042C14.4743 18.6269 14.779 18.539 14.9782 18.3515L15.5172 17.8945L16.6715 18.5917C17.0231 18.8202 17.4157 18.9433 17.8493 18.7792C18.0368 18.9374 18.2536 19.1073 18.2711 19.2948C18.2829 19.4941 18.0719 19.7695 17.9782 19.9804C17.7321 20.4902 17.7145 21.0351 17.7028 21.5624C17.6852 22.2421 17.6208 22.9277 17.4977 23.6015C17.3864 23.6308 17.2633 23.6952 17.1403 23.8183C16.695 24.2636 16.5133 25.0429 16.8004 25.582C16.5485 25.787 16.695 26.2089 17.0231 26.2031C17.1344 26.2089 17.2399 26.1679 17.3102 26.0917C17.7497 26.3495 18.4469 26.4902 18.8805 26.7656C18.7868 26.9882 18.9626 27.2519 19.2086 27.246C19.3258 27.2519 19.443 27.205 19.5133 27.1171C19.6364 27.1816 19.7594 27.246 19.8883 27.3105C19.7887 27.7148 20.3336 27.9198 20.5563 27.5917C20.6149 27.6152 20.6793 27.6327 20.7321 27.6269C20.8844 27.6269 20.9782 27.5566 21.0368 27.5214C21.4586 27.3808 21.5758 26.789 21.3415 26.4609C20.779 25.6523 19.9469 24.7909 20.029 23.8124C20.0583 23.5898 20.1227 23.3554 20.2106 23.1327ZM20.9196 18.6152C20.9254 18.8906 20.8258 19.1777 20.7321 19.4589C20.1637 19.1074 19.5251 18.9023 18.8629 18.8554C18.7809 18.6913 18.6579 18.5507 18.5231 18.4335C19.1032 18.0644 19.6247 17.6015 20.0641 17.0683C20.445 17.4902 20.902 18.0058 20.9196 18.6152ZM23.3102 10.7109C23.4333 10.6874 23.6442 10.6464 23.7848 10.4472C23.9489 10.2011 23.8727 10.0312 23.902 9.80852C24.1071 9.84368 24.3415 9.77337 24.529 9.6679C24.6754 9.60344 24.7282 9.53313 24.7985 9.41594C25.1911 9.76165 25.4137 10.0605 25.4079 10.4941C25.4137 10.582 25.3961 10.664 25.3493 10.7402C25.2907 10.8222 25.1559 10.8925 25.0446 10.9452C23.7028 11.5839 22.3141 12.2284 20.8844 12.621C20.861 12.6152 20.8083 12.5917 20.7204 12.498C20.5153 12.2929 20.3629 12.0468 20.2692 11.7831C20.984 11.2206 22.3258 10.8925 23.3102 10.7109ZM19.1852 8.22649C19.5016 8.50188 19.8297 8.7011 20.152 8.81243C20.0934 8.90032 20.0231 8.98235 19.9352 9.0468C19.777 9.15227 19.5368 9.18157 19.3961 9.11712C19.1149 8.93548 19.0622 8.50774 19.027 8.09173C19.0797 8.1386 19.1325 8.18547 19.1852 8.22649ZM21.5524 7.2304C21.4469 7.74016 21.1247 8.29094 20.6442 8.20305C20.1051 8.14446 19.484 7.65227 19.2497 7.2304C19.4782 7.02532 19.6188 6.74407 19.695 6.44524C19.9001 6.74407 20.3102 6.68548 20.3981 6.37493C20.5094 5.97063 20.6969 5.59563 21.0836 5.60149C21.3297 5.64251 21.5817 5.84759 21.8571 5.90618C21.8161 6.33391 21.7047 6.80852 21.5524 7.2304ZM19.0739 5.50188C19.3258 4.3593 20.1403 4.2304 21.3825 4.62298C21.6637 4.69915 21.8161 4.81633 21.8629 5.16204C21.6461 5.06243 21.4411 4.93938 21.1715 4.90423C20.6852 4.83977 20.1754 5.17376 19.9411 5.63079C19.5251 5.47844 19.1442 5.78313 19.0446 6.16985C19.027 5.95891 19.027 5.7304 19.0739 5.50188ZM10.8942 7.37688C10.4079 7.22454 10.1793 7.3886 9.81021 7.62883C9.74575 7.38274 9.41177 7.28899 9.23013 7.47063C9.08951 7.6054 9.00747 7.70501 8.94302 7.78704C8.86099 7.88665 8.82583 7.93938 8.66763 8.02727C8.38638 7.64055 8.0524 7.27727 8.11685 6.8261C8.91958 6.14641 10.0797 6.46282 10.9645 6.67962C11.8434 6.90813 12.7399 7.06634 13.6422 7.14251C13.5895 7.46477 13.5602 7.84563 13.5485 8.17962C12.7399 8.11516 11.7262 7.6054 10.8942 7.37688ZM14.6793 8.59563C14.5387 8.57805 14.3981 8.56048 14.2692 8.53704C14.2575 8.1093 14.2868 7.52337 14.3747 7.12493C15.7165 7.23626 17.0993 6.82024 18.4001 7.00188C18.2711 7.56438 18.2711 8.61907 18.6051 9.25188C18.7809 9.6093 19.1735 9.86126 19.5719 9.84954C20.07 9.84368 20.4567 9.6093 20.7204 9.22844C21.0075 9.59758 21.1891 10.037 21.2536 10.5058C20.8434 10.6464 20.4918 10.8105 20.193 10.9921C20.2751 10.8456 20.3571 10.6874 20.4508 10.5116C20.6501 10.0898 20.0524 9.78508 19.8239 10.1894C19.6305 10.5644 19.4665 10.8574 19.3083 11.121C18.9626 11.6777 18.5817 12.2167 18.1657 12.7324C17.9958 12.9374 17.7731 13.2597 17.7965 13.5878C16.8122 13.5937 15.8688 13.2538 15.1071 12.6386C15.3942 12.4042 15.4586 12.0116 15.4469 11.7245C15.4586 10.8046 15.5876 9.84954 15.7047 9.12298C15.734 8.94719 15.6227 8.77727 15.4528 8.7304C15.1891 8.66008 14.9254 8.62493 14.6793 8.59563ZM5.69693 22.289C5.11099 22.9394 4.72427 23.5956 4.02115 24.0761C4.01529 23.9296 4.0563 23.7011 4.12661 23.5605C4.52505 22.7577 4.58365 22.0898 4.65396 21.3163C4.66568 21.2167 4.67154 21.1113 4.68325 21.0058C4.70083 20.83 4.78872 20.6308 4.94693 20.414C5.05825 20.2616 5.2106 20.1679 5.3395 20.1679C5.42154 20.1679 5.53286 20.2089 5.63833 20.2441C5.49185 20.7597 5.50943 21.3046 5.68521 21.8144C5.73208 21.9667 5.82583 22.1484 5.69693 22.289ZM10.0797 20.039C8.83169 20.3027 7.45474 20.6308 6.30044 21.457C6.19497 21.0702 6.21255 20.6659 6.35318 20.2909C6.64029 20.1972 6.86294 19.9863 7.1149 19.8281C7.90005 19.2831 8.63833 18.7675 9.48794 18.4921C9.71646 18.4159 9.93911 18.3691 10.1618 18.2929C10.2907 18.3749 10.4372 18.5566 10.5368 18.6679C10.8297 18.9784 11.111 19.33 11.2223 19.7519C10.859 19.8749 10.4782 19.957 10.0797 20.039ZM11.8668 19.4531C11.6793 18.8671 11.2575 18.4042 10.8473 17.9589C11.2633 17.6718 11.5739 17.3144 11.902 16.9745C12.4528 17.3613 13.068 17.6308 13.6247 17.9765C13.1032 18.5097 12.529 19.0722 11.8668 19.4531ZM17.4333 18.1523C17.2985 18.1523 17.1813 18.0702 17.0407 17.9882L15.6168 17.1269C15.1012 16.8105 14.5797 16.4648 14.4098 15.9609C14.3512 15.7792 14.152 15.6796 13.9645 15.7382C13.7829 15.7968 13.6833 15.996 13.7418 16.1835C13.9352 16.7695 14.404 17.1738 14.8903 17.5019L14.5563 17.7831C13.9059 17.2323 13.0797 16.9218 12.3883 16.4648L13.2262 15.5917C13.3551 15.4687 13.4606 15.3339 13.5426 15.1757C13.6481 14.9531 13.6481 14.7363 13.6657 14.5253C13.7184 13.8925 13.9821 13.4179 14.4977 13.0429C15.4411 13.8808 16.6715 14.332 17.943 14.2851C18.2711 15.1816 18.9274 15.8788 19.5719 16.5527C19.1149 17.1269 18.5465 17.6132 17.9079 17.9765C17.7672 18.0585 17.5856 18.1523 17.4333 18.1523ZM20.5153 26.5429C20.5915 26.6484 20.6735 26.7538 20.7497 26.8593V26.8827C20.7321 26.8886 20.7204 26.9003 20.7028 26.9062C20.0348 26.6601 19.5602 26.3261 18.9508 26.0097C18.6227 25.8339 17.9372 25.6581 17.6383 25.4765C17.4274 25.3417 17.3688 25.2421 17.3571 24.9667C17.3454 24.7499 17.5504 24.3456 17.6735 24.2812H17.7086C18.2418 24.6445 18.8747 24.9081 19.5251 24.955C19.7536 25.5175 20.1403 26.039 20.5153 26.5429ZM19.5485 22.8866C19.3903 23.3144 19.2672 23.7656 19.3258 24.2226C18.9215 24.1406 18.529 23.9823 18.1833 23.7538C18.3004 23.0976 18.3708 22.4238 18.3942 21.7558C18.4118 21.246 18.4059 20.6952 18.611 20.2792C18.7282 20.0449 18.8747 19.8398 18.945 19.5585C19.5016 19.6171 20.0231 19.8281 20.4977 20.1269C20.1813 21.0527 19.8649 21.9726 19.5485 22.8866Z" fill="white"/>
</svg>