<svg xmlns="http://www.w3.org/2000/svg" width="12" height="12" viewBox="0 0 12 12" fill="none">
  <g clip-path="url(#clip0_6457_8680)">
    <path d="M6.78775 2.47461H1.31291C0.59081 2.47461 0 3.06542 0 3.78752V8.21203C0 8.93413 0.59081 9.52494 1.31291 9.52494H6.78775C7.50985 9.52494 8.10066 8.93413 8.10066 8.21203V3.78752C8.10066 3.05229 7.50985 2.47461 6.78775 2.47461Z" fill="white"/>
    <path d="M11.3729 3.19693C11.2941 3.21006 11.2153 3.24944 11.1497 3.28883L9.10156 4.47045V7.5164L11.1628 8.69802C11.5436 8.92122 12.0162 8.78993 12.2394 8.40918C12.3051 8.29102 12.3445 8.15973 12.3445 8.01531V3.95842C12.3445 3.47264 11.8849 3.07877 11.3729 3.19693Z" fill="white"/>
  </g>
  <defs>
    <clipPath id="clip0_6457_8680">
      <rect width="12" height="12" fill="white"/>
    </clipPath>
  </defs>
</svg>