<svg width="30" height="30" viewBox="0 0 30 30" fill="none" xmlns="http://www.w3.org/2000/svg">
<path d="M0.0625038 18.1719C0.750004 16.6797 1.75 15.5605 3.5 15.4984C3.9375 15.4984 4 15.1875 4.125 14.9388C5.75 12.3895 8.0625 11.146 11 11.0217C12.625 10.9595 14.25 11.0217 15.875 11.0217C16.625 11.0217 17 11.2704 16.875 12.0165C16.8125 12.6382 17 12.8248 17.625 12.8248C18.375 12.8248 18.375 12.5139 18.375 11.9543C18.3125 11.2704 18.625 10.9595 19.375 10.9595C22.625 10.9595 25.8125 10.9595 29.0625 10.9595C29.4375 10.9595 29.75 11.0838 30 11.3325C30 12.7626 30 14.2548 30 15.6849C28.9375 16.3688 27.625 16.3066 26.4375 16.6797C26.0625 16.8041 25.8125 16.5554 25.75 16.1823C25.6875 15.8092 25.875 15.5605 26.25 15.4984C26.875 15.374 27.4375 15.1253 28.0625 15.0631C28.6875 15.0009 28.8125 14.6901 28.8125 14.1305C28.8125 12.0786 28.875 12.0787 26.875 12.0787C24.75 12.0787 22.5625 12.0787 20.4375 12.0787C19.875 12.0787 19.5 12.1408 19.625 12.8248C19.75 13.6331 19.375 13.9439 18.5625 13.8818C18.125 13.8196 17.75 13.8196 17.3125 13.8818C16.375 13.9439 15.625 13.8196 15.8125 12.5761C15.875 12.203 15.6875 12.0165 15.25 12.0165C13.5625 12.0165 11.9375 11.9543 10.25 12.0787C6.4375 12.4517 3.87501 15.7471 4.18751 19.602C4.50001 23.146 7.75 25.8818 11.5625 25.6331C15.0625 25.4466 18 22.2756 17.8125 18.6693C17.75 17.4258 18.125 16.9906 19.3125 16.9284C19.875 16.8662 20.4375 16.6797 21 16.5553C21.375 16.4932 21.625 16.6175 21.75 16.9906C21.875 17.3636 21.625 17.6745 21.3125 17.6745C19.25 17.6745 19.0625 18.918 18.8125 20.5968C18.25 23.83 15.625 26.1927 12.4375 26.7523C9.125 27.3119 6 25.944 4.125 23.0217C3.9375 22.773 3.875 22.3999 3.4375 22.3377C1.625 22.2756 0.6875 21.1564 0 19.6642C0.0625 19.2911 0.0625038 18.7315 0.0625038 18.1719Z" fill="white"/>
<path d="M24.4375 16.6797C24.3125 17.0528 24.125 17.3015 23.8125 17.3015C23.4375 17.3015 23.25 17.0528 23.25 16.6797C23.25 16.3066 23.5 16.1201 23.875 16.1201C24.1875 16.1201 24.3125 16.431 24.4375 16.6797Z" fill="white"/>
<path d="M18.375 5.67421C18.375 6.2338 18.375 6.85557 18.375 7.41516C18.375 7.78822 18.1875 8.0991 17.75 8.0991C17.3125 8.0991 17.125 7.78822 17.125 7.41516C17.125 6.23381 17.125 4.99027 17.125 3.80892C17.125 3.43587 17.3125 3.125 17.75 3.125C18.1875 3.125 18.375 3.43587 18.375 3.80892C18.375 4.43069 18.375 5.05245 18.375 5.67421Z" fill="white"/>
<path d="M12.3759 4.92773C12.7509 4.98991 12.9384 5.17644 13.0009 5.48732C13.3759 6.48214 13.7509 7.47695 14.1259 8.47177C14.3134 8.907 14.2509 9.21789 13.8134 9.40441C13.3759 9.52877 13.1884 9.28007 13.0009 8.90701C12.6259 7.85002 12.1884 6.79302 11.8134 5.73602C11.6884 5.30078 11.9384 5.11426 12.3759 4.92773Z" fill="white"/>
<path d="M23.6876 5.67441C23.2501 6.79358 22.8126 7.97494 22.3126 9.21847C22.1876 9.46717 21.9376 9.52934 21.6876 9.46717C21.3751 9.40499 21.1876 9.15629 21.3126 8.84541C21.7501 7.60188 22.1876 6.42053 22.6876 5.17701C22.7501 4.99048 23.0626 4.86613 23.3126 4.99049C23.5626 5.11484 23.6876 5.30135 23.6876 5.67441Z" fill="white"/>
<circle cx="11" cy="19" r="4.5" fill="#0A4DFA" stroke="white"/>
</svg>
