<svg xmlns="http://www.w3.org/2000/svg" width="18" height="18" viewBox="0 0 18 18" fill="none">
  <path d="M1.68753 12.9375C1.79836 12.9376 1.90812 12.9159 2.01051 12.8735C2.1129 12.8311 2.2059 12.7688 2.28417 12.6904L7.03128 7.94324L8.96589 9.87789C9.04424 9.95624 9.13726 10.0184 9.23963 10.0608C9.342 10.1032 9.45173 10.125 9.56253 10.125C9.67334 10.125 9.78306 10.1032 9.88543 10.0608C9.9878 10.0184 10.0808 9.95624 10.1592 9.87789L15.4685 4.56859L15.4681 6.46875C15.4681 6.69253 15.557 6.90714 15.7153 7.06537C15.8735 7.22361 16.0881 7.3125 16.3119 7.3125C16.5357 7.3125 16.7503 7.22361 16.9085 7.06537C17.0668 6.90714 17.1556 6.69253 17.1556 6.46875L17.1563 2.53125C17.1563 2.30747 17.0674 2.09286 16.9092 1.93463C16.7509 1.77639 16.5363 1.6875 16.3125 1.6875H12.375C12.1513 1.6875 11.9366 1.77639 11.7784 1.93463C11.6202 2.09286 11.5313 2.30747 11.5313 2.53125C11.5313 2.75503 11.6202 2.96964 11.7784 3.12787C11.9366 3.28611 12.1513 3.375 12.375 3.375H14.2755L9.56253 8.08801L7.62792 6.15336C7.54957 6.07501 7.45655 6.01286 7.35418 5.97045C7.25181 5.92805 7.14209 5.90622 7.03128 5.90622C6.92047 5.90622 6.81075 5.92805 6.70838 5.97045C6.60601 6.01286 6.51299 6.07501 6.43464 6.15336L1.09089 11.4971C0.972888 11.6151 0.892523 11.7655 0.859964 11.9291C0.827406 12.0928 0.844115 12.2625 0.907979 12.4166C0.971843 12.5708 1.07999 12.7026 1.21875 12.7953C1.35751 12.888 1.52065 12.9375 1.68753 12.9375Z" fill="#505050"/>
  <path d="M16.3125 14.625H1.6875C1.46372 14.625 1.24911 14.7139 1.09088 14.8721C0.932645 15.0304 0.84375 15.245 0.84375 15.4688C0.84375 15.6925 0.932645 15.9071 1.09088 16.0654C1.24911 16.2236 1.46372 16.3125 1.6875 16.3125H16.3125C16.5363 16.3125 16.7509 16.2236 16.9091 16.0654C17.0674 15.9071 17.1562 15.6925 17.1562 15.4688C17.1562 15.245 17.0674 15.0304 16.9091 14.8721C16.7509 14.7139 16.5363 14.625 16.3125 14.625Z" fill="#505050"/>
</svg>