<svg xmlns="http://www.w3.org/2000/svg" width="16" height="16" viewBox="0 0 16 16" fill="none">
  <g clip-path="url(#clip0_6412_18124)">
    <path d="M14.0438 5.8799C13.9236 5.79028 13.8299 5.6699 13.7724 5.53145C13.7149 5.39301 13.6958 5.24161 13.7171 5.09323C13.9971 3.33323 13.6771 2.79323 13.4371 2.55323C13.1971 2.31323 12.6638 1.9999 10.9038 2.2799C10.7555 2.29981 10.6046 2.28008 10.4664 2.22269C10.3282 2.16531 10.2077 2.07233 10.1171 1.95323C8.95714 0.406563 8.35047 0.226562 7.99714 0.226562C7.6438 0.226562 7.03714 0.406563 5.87714 1.95323C5.78657 2.07233 5.66606 2.16531 5.52787 2.22269C5.38969 2.28008 5.23876 2.29981 5.09047 2.2799C3.33047 1.9999 2.79714 2.3199 2.55714 2.55323C2.31714 2.78656 1.99714 3.33323 2.27714 5.09323C2.29848 5.24161 2.2794 5.39301 2.22191 5.53145C2.16442 5.6699 2.07064 5.79028 1.95047 5.8799C0.403802 7.0399 0.230469 7.64656 0.230469 7.9999C0.230469 8.35323 0.403802 8.9599 1.95047 10.1199C2.07064 10.2095 2.16442 10.3299 2.22191 10.4683C2.2794 10.6068 2.29848 10.7582 2.27714 10.9066C2.0238 12.6799 2.31714 13.2066 2.55714 13.4466C2.79714 13.6866 3.31714 13.9732 5.09047 13.7199C5.23885 13.6986 5.39025 13.7176 5.52869 13.7751C5.66714 13.8326 5.78752 13.9264 5.87714 14.0466C7.03714 15.5932 7.6438 15.7732 7.99714 15.7732C8.35047 15.7732 8.95714 15.5932 10.1171 14.0466C10.2068 13.9264 10.3271 13.8326 10.4656 13.7751C10.604 13.7176 10.7554 13.6986 10.9038 13.7199C12.6838 13.9732 13.1971 13.6799 13.4371 13.4466C13.6771 13.2132 13.9705 12.6799 13.7171 10.9066C13.6958 10.7582 13.7149 10.6068 13.7724 10.4683C13.8299 10.3299 13.9236 10.2095 14.0438 10.1199C15.5905 8.9599 15.7638 8.35323 15.7638 7.9999C15.7638 7.64656 15.5905 7.0399 14.0438 5.8799Z" fill="#38E894"/>
    <path d="M7.66679 10.3335C7.57905 10.334 7.49208 10.3171 7.41085 10.284C7.32963 10.2508 7.25575 10.2019 7.19346 10.1401L5.86012 8.80679C5.73459 8.68125 5.66406 8.51099 5.66406 8.33346C5.66406 8.15592 5.73459 7.98566 5.86012 7.86012C5.98566 7.73459 6.15592 7.66406 6.33346 7.66406C6.51099 7.66406 6.68125 7.73459 6.80679 7.86012L7.66679 8.72679L9.86012 6.52679C9.9221 6.4643 9.99583 6.41471 10.0771 6.38086C10.1583 6.34702 10.2454 6.32959 10.3335 6.32959C10.4215 6.32959 10.5086 6.34702 10.5898 6.38086C10.6711 6.41471 10.7448 6.4643 10.8068 6.52679C10.8693 6.58876 10.9189 6.6625 10.9527 6.74374C10.9866 6.82498 11.004 6.91211 11.004 7.00012C11.004 7.08813 10.9866 7.17527 10.9527 7.25651C10.9189 7.33775 10.8693 7.41148 10.8068 7.47346L8.14012 10.1401C8.07783 10.2019 8.00395 10.2508 7.92273 10.284C7.8415 10.3171 7.75453 10.334 7.66679 10.3335Z" fill="white"/>
  </g>
  <defs>
    <clipPath id="clip0_6412_18124">
      <rect width="16" height="16" fill="white"/>
    </clipPath>
  </defs>
</svg>