<svg xmlns="http://www.w3.org/2000/svg" width="106" height="34" viewBox="0 0 106 34" fill="none">
  <path d="M23.1325 31.9582C21.2032 31.9884 19.5104 32.0186 18.0256 32.0487C18.2809 31.9482 18.3188 31.8375 18.3188 31.8375C18.3188 31.8375 18.4322 31.6766 18.0256 31.4956C17.6189 31.3145 17.2217 30.8317 16.9758 30.8619C16.7394 30.8921 16.503 30.9826 16.3516 30.9826C16.3516 30.9826 16.6543 30.8317 16.8056 30.6809C16.8056 30.6809 16.0395 30.9323 15.5951 30.7311C15.5951 30.7311 15.9166 30.5803 16.2098 30.3791C16.2098 30.3791 16.1719 30.0975 15.8315 30.1679C15.491 30.2282 15.2924 30.4093 14.9614 30.4294C14.6304 30.4495 14.4602 30.3892 14.4602 30.3892C14.4602 30.3892 14.8858 30.1176 15.1979 29.9969C15.4532 29.8963 15.8788 29.846 15.8788 29.846C15.9544 29.8058 16.2098 29.0515 17.5243 26.7985C17.7513 26.4162 18.158 25.8027 18.4512 25.3501C18.7349 24.9075 18.9713 24.3644 18.9335 24.0224C18.8956 23.6604 18.5174 22.1416 17.8081 21.6186C17.1082 21.0956 16.7488 20.8039 16.7488 20.8039C16.7488 20.8039 17.2974 20.9849 17.6946 21.2665C18.0918 21.5482 18.385 21.5482 18.385 21.5482C18.385 21.5482 18.1201 21.0252 18.0256 20.8039C17.931 20.5826 16.9853 20.0797 16.6732 19.9992C16.3706 19.9188 15.1789 20.6832 14.933 21.0855C14.9709 20.9246 15.0371 20.7737 15.1127 20.6631C15.3681 20.311 16.1436 19.8383 16.1436 19.8383C16.1436 19.8383 14.602 20.3311 14.0819 21.0553C14.0819 21.0553 14.7439 19.8785 15.8882 19.3958C16.5692 19.1041 17.2501 19.1443 17.2501 19.1443C16.8907 18.5207 15.7275 17.0221 15.718 17.0221C14.6966 16.8008 12.6255 17.2232 12.6255 17.2232C12.9754 16.9617 14.0724 16.7505 14.6588 16.6499C14.8858 16.6097 15.0465 16.5896 15.0465 16.5896C15.0465 16.5896 15.0465 16.5292 15.0371 16.4186C14.9992 15.9559 14.7439 13.9041 14.4034 12.8983C13.9306 11.4901 13.4199 10.3938 13.4199 10.3938C13.4199 10.3938 14.0724 11.0878 14.7344 12.0735C15.1789 12.7373 15.4627 13.9141 15.4627 13.9141C15.2641 11.631 13.609 8.99576 13.609 8.99576C14.4886 9.71993 15.283 10.8364 15.8031 11.7818C15.6896 9.69982 15.1316 7.88937 14.394 7.36636C14.6493 7.53734 15.2735 7.96984 15.614 8.53309C15.614 8.53309 16.2287 7.63792 16.5313 7.27583C16.9474 6.78299 17.3636 6.47119 17.3636 6.47119C17.3636 6.47119 17.3447 6.4209 17.3068 6.34044C17.373 6.27003 17.4392 6.18957 17.5149 6.1091C17.9215 5.70678 18.0067 5.47545 18.0067 5.47545C17.7986 5.62632 17.4298 5.71684 17.4298 5.71684C17.4298 5.71684 17.8175 5.42516 18.0634 5.12342C18.3093 4.83174 18.4606 4.64063 18.4606 4.64063C18.3566 4.92226 18.2904 5.21394 18.2904 5.21394C18.4795 5.11336 18.9713 4.89208 19.3591 4.26849C19.7468 3.63483 20.3521 2.76984 20.598 2.43793C20.8438 2.10601 21.1465 1.57294 21.1465 1.57294C21.1465 1.7741 21.1843 2.11607 21.1843 2.11607C21.2694 2.01549 21.6666 1.67352 21.7139 1.63328C21.8558 1.54276 22.1962 1.50253 22.253 1.4623C22.3476 1.38183 22.357 1.20079 22.357 1.20079C22.2908 1.29131 22.13 1.31143 22.13 1.31143C22.1773 1.22091 22.3003 1.2209 22.2719 0.98957C22.253 0.858816 22.149 0.758236 22.149 0.758236C22.149 0.758236 22.2057 1.23096 22.0355 1.24102L21.6288 1.29131C21.6288 1.29131 21.8747 1.19073 21.9314 1.07003C21.9882 0.959397 21.9125 0.627482 21.8463 0.547018C21.7707 0.476612 21.5342 0.396147 21.5721 0.386089C21.6099 0.376031 21.9314 0.265393 22.0544 0.245277C22.1773 0.225161 22.2719 0.134639 22.149 0.0642326C22.026 -0.00617355 21.5815 0.00388462 21.5815 0.00388462C21.3735 -0.0363475 21.0897 0.245277 20.9668 0.416263C20.8438 0.58725 20.9006 0.868875 20.8438 1.20079C20.7871 1.54276 20.2197 2.11607 20.2197 2.11607C20.3142 1.90485 20.3615 1.57294 20.3615 1.57294C20.3615 1.57294 19.7563 2.18648 19.0753 2.41781C18.3944 2.64914 17.5054 3.53425 17.0893 4.01704C16.8907 4.24837 16.607 4.41936 16.3138 4.57023C16.7016 4.76133 16.8812 5.3447 16.9569 5.6062C16.9758 5.67661 16.9853 5.7269 16.9947 5.73696C16.9947 5.73696 16.6826 5.30446 16.3611 5.1033C16.153 4.97255 15.9544 4.88202 15.7937 4.83173C15.6707 4.7915 15.5761 4.76133 15.5194 4.75127L14.1197 5.23406C14.0724 5.14353 13.9684 5.07313 13.9684 5.07313C13.9589 5.34469 13.7603 6.13928 13.3631 6.58183C13.2875 6.67235 13.174 6.76287 13.07 6.84334C12.9281 6.90369 12.7957 6.67235 12.8241 6.59189C12.843 6.5416 13.051 6.50137 13.051 6.50137C13.051 6.50137 12.947 6.45108 12.8619 6.45108C12.7484 6.45108 12.6349 6.44102 12.6349 6.44102C12.6349 6.44102 12.8241 6.33038 12.9659 6.32032C13.1078 6.31026 13.3159 6.25998 13.3159 6.25998C13.3159 6.25998 13.1645 6.19963 13.0321 6.1594C12.8903 6.11916 12.6728 6.09905 12.6728 6.09905C12.6728 6.09905 12.6728 6.09905 12.7579 6.00852C12.843 5.918 13.07 5.76713 13.07 5.76713L12.8146 4.94237C12.8146 4.94237 12.7106 4.86191 12.5876 4.84179C12.4647 4.82168 12.0864 4.67081 12.0864 4.67081L12.6066 4.68086L12.408 3.68512C12.408 3.68512 12.7768 3.75553 12.9943 3.70524C13.2024 3.665 13.7036 3.33309 13.7036 3.33309L14.0062 4.07738C14.0062 4.07738 13.9873 3.64489 13.9589 3.46384C13.9306 3.2828 13.7698 2.60891 13.6941 2.4681C13.5617 2.24682 13.278 2.11607 13.278 2.11607C12.4931 1.7741 11.2542 1.88473 10.8097 2.70949C10.6773 2.96094 10.5638 3.33309 10.734 3.92651C10.8475 4.29866 10.9232 4.4093 10.9232 4.4093C10.9232 4.4093 10.63 4.43947 10.6205 4.56017C10.6111 4.69092 10.6773 5.06307 10.838 5.24411C10.9988 5.42516 11.2258 5.59614 11.2258 5.59614C11.2258 5.59614 11.2258 5.59614 11.3204 5.88783C11.3487 5.96829 11.3866 6.06887 11.4339 6.16945C11.2636 6.37061 10.9799 6.66229 10.6962 6.82322C10.2422 7.07467 9.58968 7.50717 9.55185 7.53734C9.36271 7.65804 9.21139 7.76868 9.12628 7.86926C9.39108 7.75862 9.69371 7.65804 9.94906 7.56752C10.2422 7.46694 10.4692 7.39653 10.4692 7.39653C10.4692 7.39653 10.3841 7.46694 10.2422 7.57757C10.072 7.70833 9.82611 7.87932 9.51402 8.07042C8.97496 8.39228 8.32241 9.04605 8.01032 9.45842C7.58474 10.0619 7.20645 10.595 7.20645 10.595C7.20645 10.595 7.35776 10.6654 7.54691 10.776C7.41451 11.1884 7.12133 12.1137 6.96056 12.3753C6.7525 12.7072 6.52552 13.1195 6.52552 13.1195L6.76196 13.0592C7.06459 13.0491 7.32939 13.2503 7.32939 13.2503C7.32939 13.2503 6.58227 13.6224 6.13777 14.2662C5.69328 14.9099 5.68383 15.7346 5.68383 15.7346C5.57034 15.6139 5.27716 15.3223 5.12585 15.1613C5.11639 15.1915 5.10693 15.2217 5.09747 15.2518C5.08802 15.272 5.07856 15.2921 5.07856 15.3122C5.14476 15.6139 5.25825 16.1068 5.36228 16.2979C5.62708 16.7706 6.13777 17.1226 6.13777 17.1226C6.13777 17.1226 5.0691 16.6197 4.76647 16.1872C4.76647 16.1872 4.92724 16.7304 5.19205 17.0925C5.14476 17.0824 5.09747 17.0623 5.05019 17.0422C4.8705 16.9718 4.69081 16.831 4.53949 16.67C4.52058 16.9718 4.58678 17.1226 4.72864 17.2232C4.89887 17.3439 4.92724 17.4546 5.10693 17.4747C5.28662 17.4948 5.21096 17.4948 5.44739 17.6457C5.68383 17.7865 5.58925 17.525 5.83514 17.5954C6.08103 17.6758 6.09995 17.5149 6.09995 17.5149C6.09995 17.5149 6.28909 17.6457 6.37421 17.535C6.44987 17.4143 6.43095 17.2333 6.48769 16.8913C6.54444 16.5493 6.45932 16.5594 6.29855 16.3582C6.14723 16.1571 5.977 15.9157 5.977 15.9157C5.977 15.9157 6.0432 15.5737 6.30801 15.2619C6.57281 14.94 7.03622 14.6383 7.30102 14.3667C7.5942 14.0751 7.60365 13.8035 7.77388 13.542C7.95357 13.1397 7.90629 13.0391 8.08597 12.6569C8.11435 12.5865 8.57775 12.1339 8.51155 11.983C8.33186 11.6108 8.13326 11.2789 7.96303 11.0275C8.01977 11.0677 8.07652 11.118 8.1238 11.1582C8.47372 11.47 8.8331 11.8623 8.8331 11.8623C8.8331 11.8623 9.12628 11.5002 9.38162 11.2186C9.38162 11.2186 9.8734 10.7559 10.7529 9.6797C10.7529 9.6797 10.3368 10.7861 10.1193 11.3192C10.1193 11.3292 10.1098 11.3393 10.1098 11.3493C10.4881 11.0576 10.8853 10.7056 10.8853 10.7056C10.8853 10.7056 9.9396 12.3149 9.72208 13.2604C9.70317 13.6023 9.85449 14.6685 9.75046 15.2921C9.8072 15.2619 9.85449 15.2418 9.91123 15.2217C10.6111 14.9501 11.5663 14.9702 11.5663 14.9702C11.3204 15.0105 11.0177 15.111 10.7056 15.2418C10.1287 15.4832 9.53294 15.8453 9.28705 16.147L9.25868 16.1671C9.11682 16.3884 9.00333 16.5896 8.94659 16.7203C8.94659 16.7203 9.26814 16.4387 9.82611 16.2677L9.81666 16.2778C10.1098 16.1872 10.6773 16.0464 11.3677 15.9458C12.2093 15.8352 13.2875 16.0364 13.6563 16.1168C13.7414 16.137 13.7887 16.147 13.7887 16.147C13.7603 16.147 13.7414 16.147 13.7131 16.147C12.6349 16.0766 11.8783 16.1068 10.8002 16.4387C10.4881 16.5393 10.0436 16.7404 9.63697 16.9416L9.62751 16.9315C9.62751 16.9315 9.32488 17.0824 9.01279 17.2534C8.87093 17.3238 8.72907 17.4043 8.62504 17.4747C8.54938 17.525 8.48318 17.5652 8.43589 17.5954C8.29403 17.706 8.1238 18.3095 8.00086 18.7923C7.51854 19.5567 6.9511 20.4317 6.9511 20.4317C6.9511 20.4317 6.23235 21.4476 6.09049 21.7594C6.09049 21.7594 5.75003 21.9103 5.22042 22.2623C5.22042 22.2623 5.57034 21.7192 6.06212 21.5381C6.06212 21.5381 5.60817 21.4074 5.39065 21.5381C5.39065 21.5381 5.50414 21.166 5.977 21.0654C5.977 21.0654 5.62708 20.5222 5.19205 20.2607C5.04073 20.1702 4.91779 20.0395 4.8043 19.8987C4.72864 19.5869 4.90833 19.5366 5.01236 19.2751C5.1353 18.9331 5.03127 18.7017 4.7381 18.5811C4.44492 18.4704 3.59377 18.6917 3.59377 18.6917C3.59377 18.6917 4.03826 18.3899 4.37872 18.3598C4.37872 18.3598 3.51811 18.2793 2.67641 18.048C1.97657 17.8569 1.41859 17.877 0.898442 18.0882C0.463407 18.2592 0.718753 18.7722 0.964643 18.9633C1.21053 19.1544 1.53208 19.3153 1.53208 19.3153C1.53208 19.3153 1.40913 18.9532 1.8158 18.7722C1.8158 18.7722 1.65502 19.1644 1.74014 19.4662L1.91983 19.5768C1.91983 19.5768 1.83471 19.094 2.26975 18.8828C2.26975 18.8828 2.05223 19.4058 2.12789 19.6975L2.43998 19.8182C2.43998 19.8182 2.45889 19.1041 2.89393 18.9331C2.89393 18.9331 2.6575 19.5667 2.82773 19.8785C2.91284 20.0294 3.06416 20.1099 3.30059 20.1501C3.36679 20.2306 3.43299 20.301 3.48028 20.3714C3.64105 20.6429 3.72617 21.6789 4.10446 22.4232C4.48275 23.1575 5.12585 24.2638 5.79731 24.4751C6.46878 24.6762 7.2159 24.2437 7.82117 23.6805L8.37915 23.1172C8.37915 23.1172 7.84954 22.9362 7.49017 22.4735C7.49017 22.4735 7.84954 22.554 8.06706 22.6244C8.28458 22.7048 8.84256 22.7551 8.84256 22.7551C8.84256 22.7551 8.04815 22.1617 7.78334 21.9304C7.63203 21.7996 7.50908 21.2967 7.43342 20.9045C7.95357 21.4275 8.75744 22.2221 9.10736 22.4634C9.77883 22.9261 10.072 22.8758 10.072 22.8758C10.072 22.8758 11.3487 21.2766 11.7743 20.9246C11.7743 20.9246 10.5449 21.1157 9.59914 21.1458C9.59914 21.1458 10.9988 20.6631 11.7176 20.311C11.7176 20.311 10.6962 20.1602 10.2233 20.2809C10.2233 20.2809 11.4528 19.959 12.3134 19.5366C13.174 19.1242 14.7912 18.5308 15.2924 18.5408C15.2924 18.5408 13.505 19.0538 12.8997 19.7981C12.8997 19.7981 13.5428 19.6774 13.9022 19.7377C13.9022 19.7377 12.6728 20.653 12.512 20.8944C12.512 20.8944 13.4955 21.9907 14.0535 22.5841C14.6115 23.1776 15.4437 23.3486 15.4437 23.3486C15.4437 23.3486 15.2168 23.0569 14.9992 22.3729C14.9141 22.1114 14.8763 21.8499 14.8668 21.6085C14.9236 21.86 15.0749 22.1416 15.2546 22.4534C15.4816 22.8255 16.3706 23.8213 16.4462 23.9621C16.9664 23.5397 17.3541 23.5397 17.3541 23.5397C17.1177 23.7006 16.5975 24.2437 16.5975 24.2437C16.5975 24.2437 15.7369 25.3602 15.4627 26.0039C15.1884 26.6576 14.8479 28.0054 14.6777 28.3474C14.6777 28.3474 15.7937 26.6174 16.1719 25.9636C16.1719 25.9636 15.5478 27.5126 15.056 28.4882C14.5926 29.4135 14.3089 29.9567 14.1765 30.1981C14.0819 30.3691 13.9968 30.53 13.8644 30.7915C13.8549 30.7915 13.8549 30.8015 13.8455 30.8116C13.7793 30.9323 13.7131 31.0631 13.6658 31.1737C13.6469 31.2139 13.6279 31.2542 13.6185 31.2944C13.5996 31.3547 13.3159 31.8878 13.7036 32.0789C7.35776 32.1896 7.32939 32.1896 6.8849 32.1996C6.45932 32.7729 5.80677 33.135 5.05965 33.135C4.62461 33.135 4.20849 33.0043 3.85857 32.783C4.15175 32.9338 4.47329 33.0143 4.81376 33.0143C5.48522 33.0143 6.08103 32.7025 6.48769 32.2097C6.83761 31.7872 7.05513 31.234 7.05513 30.6205C7.05513 29.8159 6.6863 29.1118 6.11886 28.6793C6.09995 28.6793 4.54895 28.6089 3.78291 29.8159C3.78291 29.8159 3.87749 28.9006 4.42601 28.3776C4.46384 28.3373 4.50167 28.3072 4.53949 28.277C4.45438 28.3172 4.37872 28.3675 4.29361 28.4178C3.55594 28.9006 3.04524 29.7555 3.04524 31.1737C3.04524 31.1737 2.7899 30.4495 3.02633 29.5342C3.08307 29.313 3.16819 29.0816 3.29113 28.8503C2.84664 29.2828 2.56292 29.9164 2.56292 30.6104C2.56292 31.4654 2.9885 32.2097 3.62214 32.6321L0 34L23.1325 31.9582Z" fill="#FE5C4D"/>
  <path d="M13.9787 4.57031C13.9787 4.57031 13.8271 4.67097 13.6092 4.74144C13.3818 4.82197 13.0312 4.88236 13.0312 4.88236C13.0312 4.88236 13.1165 5.07362 13.3439 5.11388C13.4671 5.13401 13.8271 5.01322 13.8271 5.01322C13.7418 5.01322 13.6281 4.95283 13.6281 4.95283C13.7513 4.90249 13.9787 4.57031 13.9787 4.57031Z" fill="#FE5C4D"/>
  <path d="M33.2156 12.7913V1.73735H37.9783C38.7535 1.73735 39.4066 1.85841 39.9375 2.10055C40.4685 2.33215 40.872 2.66377 41.1481 3.0954C41.4348 3.5165 41.5782 4.01656 41.5782 4.59558C41.5782 5.15354 41.4561 5.62201 41.2118 6.00101C40.9676 6.38 40.6437 6.66951 40.2402 6.86953C39.8473 7.06955 39.4119 7.19062 38.934 7.23273L39.1889 7.04323C39.7092 7.06429 40.1658 7.20115 40.5587 7.45381C40.9517 7.70647 41.2596 8.03809 41.4826 8.44866C41.7162 8.84871 41.833 9.29087 41.833 9.77514C41.833 10.3752 41.6897 10.9016 41.403 11.3543C41.1163 11.807 40.6968 12.1596 40.1446 12.4123C39.5924 12.6649 38.9234 12.7913 38.1376 12.7913H33.2156ZM35.6049 10.8647H37.7394C38.2703 10.8647 38.6792 10.7489 38.9659 10.5173C39.2632 10.2752 39.4119 9.92778 39.4119 9.4751C39.4119 9.02241 39.2579 8.66974 38.9499 8.41708C38.6526 8.16442 38.2385 8.03809 37.7075 8.03809H35.6049V10.8647ZM35.6049 6.28525H37.5642C38.0739 6.28525 38.4615 6.16945 38.7269 5.93784C39.003 5.70623 39.1411 5.37988 39.1411 4.95878C39.1411 4.53768 39.003 4.21132 38.7269 3.97972C38.4615 3.73758 38.0686 3.61652 37.5482 3.61652H35.6049V6.28525Z" fill="#FE5C4D"/>
  <path d="M48.5202 12.9808C47.4264 12.9808 46.4654 12.7386 45.6371 12.2544C44.8088 11.7701 44.1558 11.1016 43.6779 10.2489C43.2107 9.38562 42.977 8.39076 42.977 7.26431C42.977 6.13787 43.2107 5.14827 43.6779 4.29554C44.1558 3.43228 44.8088 2.75852 45.6371 2.27425C46.4654 1.78999 47.4264 1.54785 48.5202 1.54785C49.614 1.54785 50.5803 1.78999 51.4192 2.27425C52.2582 2.75852 52.9059 3.43228 53.3625 4.29554C53.8298 5.14827 54.0634 6.13787 54.0634 7.26431C54.0634 8.39076 53.8298 9.38562 53.3625 10.2489C52.9059 11.1016 52.2582 11.7701 51.4192 12.2544C50.5803 12.7386 49.614 12.9808 48.5202 12.9808ZM48.5202 10.8489C49.168 10.8489 49.7202 10.7016 50.1768 10.4068C50.644 10.112 51.0051 9.70144 51.26 9.17506C51.5148 8.63816 51.6422 8.00124 51.6422 7.26431C51.6422 6.52738 51.5148 5.89573 51.26 5.36935C51.0051 4.83245 50.644 4.42187 50.1768 4.13763C49.7202 3.84286 49.168 3.69547 48.5202 3.69547C47.8937 3.69547 47.3468 3.84286 46.8796 4.13763C46.4123 4.42187 46.0513 4.83245 45.7964 5.36935C45.5416 5.89573 45.4141 6.52738 45.4141 7.26431C45.4141 8.00124 45.5416 8.63816 45.7964 9.17506C46.0513 9.70144 46.4123 10.112 46.8796 10.4068C47.3468 10.7016 47.8937 10.8489 48.5202 10.8489Z" fill="#FE5C4D"/>
  <path d="M60.8254 12.9808C59.7316 12.9808 58.7706 12.7386 57.9423 12.2544C57.114 11.7701 56.4609 11.1016 55.983 10.2489C55.5158 9.38562 55.2822 8.39076 55.2822 7.26431C55.2822 6.13787 55.5158 5.14827 55.983 4.29554C56.4609 3.43228 57.114 2.75852 57.9423 2.27425C58.7706 1.78999 59.7316 1.54785 60.8254 1.54785C61.9191 1.54785 62.8855 1.78999 63.7244 2.27425C64.5633 2.75852 65.2111 3.43228 65.6677 4.29554C66.1349 5.14827 66.3686 6.13787 66.3686 7.26431C66.3686 8.39076 66.1349 9.38562 65.6677 10.2489C65.2111 11.1016 64.5633 11.7701 63.7244 12.2544C62.8855 12.7386 61.9191 12.9808 60.8254 12.9808ZM60.8254 10.8489C61.4731 10.8489 62.0253 10.7016 62.482 10.4068C62.9492 10.112 63.3103 9.70144 63.5651 9.17506C63.82 8.63816 63.9474 8.00124 63.9474 7.26431C63.9474 6.52738 63.82 5.89573 63.5651 5.36935C63.3103 4.83245 62.9492 4.42187 62.482 4.13763C62.0253 3.84286 61.4731 3.69547 60.8254 3.69547C60.1988 3.69547 59.652 3.84286 59.1847 4.13763C58.7175 4.42187 58.3564 4.83245 58.1016 5.36935C57.8467 5.89573 57.7193 6.52738 57.7193 7.26431C57.7193 8.00124 57.8467 8.63816 58.1016 9.17506C58.3564 9.70144 58.7175 10.112 59.1847 10.4068C59.652 10.7016 60.1988 10.8489 60.8254 10.8489Z" fill="#FE5C4D"/>
  <path d="M67.9378 12.7913V1.73735H70.3271V5.92205L74.1818 1.73735H77.1127L73.019 6.11155L77.2561 12.7913H74.3252L71.3147 7.94334L70.3271 9.00136V12.7913H67.9378Z" fill="#FE5C4D"/>
  <path d="M81.8304 12.7913V1.73735H84.6976L87.9471 8.3855L91.1647 1.73735H94.0159V12.7913H91.6266V5.73255L88.8869 11.2437H86.9754L84.2197 5.73255V12.7913H81.8304Z" fill="#FE5C4D"/>
  <path d="M98.8709 12.7913V9.00136L95.0639 1.73735H97.7718L100.304 7.04323H99.8585L102.375 1.73735H105.051L101.26 9.00136V12.7913H98.8709Z" fill="#FE5C4D"/>
  <path d="M31.8555 30.2042V15.696H37.542C38.7407 15.696 39.7302 15.8963 40.5107 16.297C41.3052 16.6977 41.8975 17.2504 42.2878 17.9551C42.678 18.646 42.8732 19.4267 42.8732 20.2972C42.8732 21.1124 42.685 21.8654 42.3087 22.5563C41.9324 23.2472 41.354 23.8068 40.5735 24.2351C39.7929 24.6635 38.7825 24.8776 37.542 24.8776H34.9914V30.2042H31.8555ZM34.9914 22.3905H37.333C38.1553 22.3905 38.7476 22.204 39.11 21.8309C39.4863 21.444 39.6745 20.9328 39.6745 20.2972C39.6745 19.6477 39.4863 19.1434 39.11 18.7842C38.7476 18.4111 38.1553 18.2245 37.333 18.2245H34.9914V22.3905Z" fill="#FE5C4D"/>
  <path d="M44.6846 30.2042V15.696H47.8206V27.8H54.1344V30.2042H44.6846Z" fill="#FE5C4D"/>
  <path d="M55.3675 30.2042L60.6986 15.696H64.2945L69.6257 30.2042H66.3015L62.4757 19.1987L58.6498 30.2042H55.3675ZM57.6881 27.0332L58.5244 24.6289H66.197L67.0124 27.0332H57.6881Z" fill="#FE5C4D"/>
  <path d="M73.271 30.2042V25.23L68.2744 15.696H71.8285L75.1526 22.6599H74.5672L77.8705 15.696H81.3827L76.407 25.23V30.2042H73.271Z" fill="#FE5C4D"/>
  <path d="M82.8251 30.2042V15.696H92.6302V18.2038H85.9611V21.6236H92.003V24.0279H85.9611V27.6964H92.6302V30.2042H82.8251Z" fill="#FE5C4D"/>
  <path d="M94.8989 30.2042V15.696H100.585C101.77 15.696 102.753 15.9032 103.533 16.3177C104.328 16.7185 104.913 17.2573 105.289 17.9344C105.68 18.6114 105.875 19.3645 105.875 20.1935C105.875 20.9673 105.687 21.6927 105.31 22.3698C104.948 23.0468 104.376 23.5926 103.596 24.0071C102.815 24.4217 101.805 24.6289 100.565 24.6289H98.0348V30.2042H94.8989ZM102.446 30.2042L99.4983 23.8621H102.864L106 30.2042H102.446ZM98.0348 22.3905H100.397C101.178 22.3905 101.749 22.204 102.112 21.8309C102.488 21.4578 102.676 20.9535 102.676 20.3179C102.676 19.6961 102.488 19.2056 102.112 18.8463C101.749 18.4733 101.178 18.2867 100.397 18.2867H98.0348V22.3905Z" fill="#FE5C4D"/>
</svg>