<svg width="26" height="26" viewBox="0 0 26 26" fill="none" xmlns="http://www.w3.org/2000/svg">
<circle cx="13" cy="13" r="13" fill="#F1F1F1" fill-opacity="0.972549"/>
<path d="M15.918 8.0415H10.0846C8.33464 8.0415 7.16797 8.9165 7.16797 10.9582V15.0415C7.16797 17.0832 8.33464 17.9582 10.0846 17.9582H15.918C17.668 17.9582 18.8346 17.0832 18.8346 15.0415V10.9582C18.8346 8.9165 17.668 8.0415 15.918 8.0415ZM16.1921 11.594L14.3663 13.0523C13.9813 13.3615 13.4913 13.5132 13.0013 13.5132C12.5113 13.5132 12.0155 13.3615 11.6363 13.0523L9.81047 11.594C9.6238 11.4423 9.59464 11.1623 9.74047 10.9757C9.89214 10.789 10.1663 10.754 10.353 10.9057L12.1788 12.364C12.6221 12.7198 13.3746 12.7198 13.818 12.364L15.6438 10.9057C15.8305 10.754 16.1105 10.7832 16.2563 10.9757C16.408 11.1623 16.3788 11.4423 16.1921 11.594Z" fill="black"/>
</svg>