<svg width="15" height="14" viewBox="0 0 15 14" fill="none" xmlns="http://www.w3.org/2000/svg">
<path d="M5.45964 11.0832H5.16797C2.83464 11.0832 1.66797 10.4998 1.66797 7.58317V4.6665C1.66797 2.33317 2.83464 1.1665 5.16797 1.1665H9.83464C12.168 1.1665 13.3346 2.33317 13.3346 4.6665V7.58317C13.3346 9.9165 12.168 11.0832 9.83464 11.0832H9.54297C9.36214 11.0832 9.18714 11.1707 9.0763 11.3165L8.2013 12.4832C7.8163 12.9965 7.1863 12.9965 6.8013 12.4832L5.9263 11.3165C5.83297 11.1882 5.61714 11.0832 5.45964 11.0832Z" stroke="white" stroke-width="1.5" stroke-miterlimit="10" stroke-linecap="round" stroke-linejoin="round"/>
<path d="M9.83143 6.41667H9.83667" stroke="white" stroke-width="2" stroke-linecap="round" stroke-linejoin="round"/>
<path d="M7.49549 6.41667H7.50073" stroke="white" stroke-width="2" stroke-linecap="round" stroke-linejoin="round"/>
<path d="M5.16346 6.41667H5.1687" stroke="white" stroke-width="2" stroke-linecap="round" stroke-linejoin="round"/>
</svg>
